Coordinates
version=1
nRows=18
nColumns=63
inDegrees=yes

Units are S.I. units (second, meters, Newtons, ...)
If the header above contains a line with 'inDegrees', this indicates whether rotational values are in degrees (yes) or radians (no).

endheader
time	pelvis_tilt	pelvis_list	pelvis_rotation	pelvis_tx	pelvis_ty	pelvis_tz	hip_flexion_r	hip_adduction_r	hip_rotation_r	knee_angle_r	knee_angle_r_beta	ankle_angle_r	subtalar_angle_r	mtp_angle_r	hip_flexion_l	hip_adduction_l	hip_rotation_l	knee_angle_l	knee_angle_l_beta	ankle_angle_l	subtalar_angle_l	mtp_angle_l	L5_S1_Flex_Ext	L5_S1_Lat_Bending	L5_S1_axial_rotation	L4_L5_Flex_Ext	L4_L5_Lat_Bending	L4_L5_axial_rotation	L3_L4_Flex_Ext	L3_L4_Lat_Bending	L3_L4_axial_rotation	L2_L3_Flex_Ext	L2_L3_Lat_Bending	L2_L3_axial_rotation	L1_L2_Flex_Ext	L1_L2_Lat_Bending	L1_L2_axial_rotation	L1_T12_Flex_Ext	L1_T12_Lat_Bending	L1_T12_axial_rotation	Abs_r3	Abs_r2	Abs_r1	Abs_t1	Abs_t2	neck_flexion	neck_bending	neck_rotation	arm_flex_r	arm_add_r	arm_rot_r	elbow_flex_r	pro_sup_r	wrist_flex_r	wrist_dev_r	arm_flex_l	arm_add_l	arm_rot_l	elbow_flex_l	pro_sup_l	wrist_flex_l	wrist_dev_l
0.000000	3.242675	-4.053537	94.373679	0.160768	0.874559	0.527278	1.038438	-3.686440	-23.341037	15.788867	0.275568	35.629875	18.387923	0.000000	-3.074076	1.162007	10.428371	1.373395	0.023970	26.444828	-4.567284	0.000000	0.135940	0.005132	-1.785980	0.252455	0.006825	-1.897604	0.223336	0.012477	-1.897604	0.155366	0.012477	-1.562732	0.126234	0.010465	-1.451109	0.077676	0.007949	-1.339485	0.971008	0.058052	-9.933084	0.000000	0.000000	25.040083	5.430964	1.983450	28.320791	-1.841204	73.203872	24.962794	86.691942	-13.804122	-3.599344	28.543417	-4.516690	75.203891	33.697840	50.007382	-10.762882	6.670813
0.022727	3.103020	-4.083089	94.492916	0.160902	0.874698	0.527332	1.099937	-3.798482	-22.841708	15.567789	0.271709	36.505254	18.135865	0.000000	-3.134894	1.268644	10.293281	1.144835	0.019981	26.963560	-3.740873	0.000000	0.142935	-0.037698	-1.733399	0.265444	-0.050138	-1.841737	0.234828	-0.091659	-1.841737	0.163360	-0.091659	-1.516725	0.132729	-0.076873	-1.408387	0.081673	-0.058394	-1.300050	1.020970	-0.426446	-9.640648	0.000000	0.000000	25.207422	4.677901	1.050238	28.577971	-1.377079	75.302152	23.938910	86.514356	-12.966727	-3.430955	27.530930	-3.986739	71.684286	32.950652	53.647872	-9.999376	7.237838
0.045455	3.010781	-4.129765	94.701810	0.160920	0.874785	0.527544	1.161110	-3.873060	-22.568676	15.397727	0.268741	37.194110	17.931973	0.000000	-3.130491	1.330093	10.259230	0.983692	0.017169	27.377780	-3.042956	0.000000	0.149712	-0.070954	-1.710812	0.278030	-0.094369	-1.817737	0.245962	-0.172519	-1.817737	0.171106	-0.172519	-1.496960	0.139023	-0.144690	-1.390034	0.085545	-0.109908	-1.283109	1.069378	-0.802651	-9.515021	0.000000	0.000000	25.297711	4.118666	0.417407	28.850792	-0.991494	77.113779	23.066343	86.338870	-12.365996	-3.324062	26.760565	-3.578178	68.898313	32.381080	56.186629	-9.414901	7.700365
0.068182	2.959314	-4.189836	94.982173	0.160840	0.874829	0.527887	1.220872	-3.915848	-22.490691	15.274538	0.266591	37.714694	17.772173	0.000000	-3.071764	1.353349	10.314562	0.882267	0.015398	27.694427	-2.471064	0.000000	0.156190	-0.095597	-1.713732	0.290060	-0.127144	-1.820840	0.256604	-0.232434	-1.820840	0.178509	-0.232434	-1.499516	0.145038	-0.194941	-1.392407	0.089247	-0.148080	-1.285299	1.115646	-1.081411	-9.531263	0.000000	0.000000	25.321425	3.733621	0.055648	29.132503	-0.676778	78.665367	22.331931	86.164801	-11.977496	-3.276005	26.204165	-3.277362	66.768200	31.969052	57.748623	-8.990803	8.065717
0.090909	2.941974	-4.259569	95.315818	0.160679	0.874837	0.528334	1.278137	-3.932516	-22.576503	15.194078	0.265187	38.085255	17.652387	0.000000	-2.969608	1.345407	10.447623	0.832863	0.014536	27.920445	-2.022726	0.000000	0.162286	-0.112584	-1.737676	0.301380	-0.149737	-1.846281	0.266619	-0.273737	-1.846281	0.185476	-0.273737	-1.520467	0.150698	-0.229582	-1.411862	0.092730	-0.174393	-1.303257	1.159189	-1.273575	-9.664434	0.000000	0.000000	25.289040	3.503129	-0.064350	29.416354	-0.425258	79.983528	21.722512	85.991463	-11.776794	-3.284122	25.833570	-3.070647	65.216175	31.694493	58.458823	-8.708430	8.341218
0.113636	2.952117	-4.335234	95.684558	0.160456	0.874815	0.528857	1.331818	-3.928739	-22.794860	15.152203	0.264456	38.324041	17.568538	0.000000	-2.834919	1.313262	10.646756	0.827781	0.014448	28.062772	-1.695473	0.000000	0.167918	-0.122875	-1.778160	0.311840	-0.163424	-1.889295	0.275872	-0.298759	-1.889295	0.191913	-0.298759	-1.555890	0.155929	-0.250567	-1.444755	0.095948	-0.190334	-1.333620	1.199420	-1.389989	-9.889590	0.000000	0.000000	25.211032	3.407551	0.028107	29.695594	-0.229263	81.094874	21.224924	85.818175	-11.739457	-3.345750	25.620625	-2.944388	64.164467	31.537330	58.442200	-8.549130	8.534190
0.136364	2.983098	-4.413101	96.070205	0.160189	0.874771	0.529430	1.380829	-3.910187	-23.114512	15.144769	0.264326	38.449303	17.516550	0.000000	-2.678594	1.263909	10.900309	0.859326	0.014998	28.128351	-1.486834	0.000000	0.173004	-0.127429	-1.830698	0.321287	-0.169481	-1.945117	0.284229	-0.309831	-1.945117	0.197727	-0.309831	-1.601861	0.160652	-0.259853	-1.487442	0.098855	-0.197388	-1.373024	1.235754	-1.441503	-10.181793	0.000000	0.000000	25.097875	3.427251	0.303707	29.963474	-0.081120	82.026019	20.826006	85.644252	-11.841052	-3.458229	25.537171	-2.884941	63.535303	31.477489	57.823722	-8.494250	8.651955
0.159091	3.028272	-4.489439	96.454573	0.159894	0.874710	0.530025	1.424083	-3.882533	-23.504209	15.167632	0.264725	38.479289	17.492347	0.000000	-2.511529	1.204343	11.196624	0.919797	0.016053	28.124123	-1.394341	0.000000	0.177463	-0.127205	-1.890807	0.329567	-0.169182	-2.008982	0.291555	-0.309285	-2.008982	0.202823	-0.309285	-1.654456	0.164793	-0.259396	-1.536281	0.101403	-0.197040	-1.418105	1.267603	-1.438963	-10.516101	0.000000	0.000000	24.960046	3.542590	0.733144	30.213241	0.026841	82.803575	20.512596	85.469010	-12.057147	-3.618896	25.555050	-2.878660	63.250913	31.494898	56.728360	-8.525137	8.701837
0.181818	3.080995	-4.560517	96.819475	0.159591	0.874642	0.530616	1.460495	-3.851449	-23.932699	15.216650	0.265581	38.432249	17.491851	0.000000	-2.344620	1.141559	11.524048	1.001498	0.017479	28.057028	-1.415522	0.000000	0.181213	-0.123161	-1.954002	0.336530	-0.163804	-2.076127	0.297714	-0.299453	-2.076127	0.207108	-0.299453	-1.709752	0.168274	-0.251149	-1.587627	0.103545	-0.190776	-1.465502	1.294383	-1.393218	-10.867573	0.000000	0.000000	24.808021	3.733930	1.287106	30.438147	0.102293	83.454154	20.271533	85.291765	-12.363307	-3.825091	25.646104	-2.911903	63.233525	31.569482	55.281083	-8.623139	8.691159
0.204545	3.134623	-4.622605	97.146723	0.159296	0.874571	0.531175	1.488979	-3.822608	-24.368732	15.287677	0.266820	38.326433	17.510987	0.000000	-2.188763	1.082552	11.870926	1.096731	0.019142	27.934009	-1.547908	0.000000	0.184170	-0.116256	-2.015799	0.342022	-0.154621	-2.141786	0.302573	-0.282666	-2.141786	0.210488	-0.282666	-1.763824	0.171020	-0.237070	-1.637837	0.105235	-0.180081	-1.511849	1.315507	-1.315116	-11.211268	0.000000	0.000000	24.652274	3.981634	1.936287	30.631441	0.152907	84.004369	20.089654	85.111835	-12.735101	-4.074150	25.782176	-2.971024	63.405366	31.681169	53.606860	-8.769604	8.627243
0.227273	3.182509	-4.671972	97.418129	0.159027	0.874506	0.531676	1.508447	-3.801681	-24.781058	15.376571	0.268372	38.180089	17.545677	0.000000	-2.054855	1.034317	12.225603	1.197798	0.020906	27.762005	-1.789030	0.000000	0.186253	-0.107451	-2.071713	0.345891	-0.142909	-2.201195	0.305996	-0.261256	-2.201195	0.212869	-0.261256	-1.812749	0.172955	-0.219113	-1.683267	0.106425	-0.166441	-1.553785	1.330389	-1.215504	-11.522245	0.000000	0.000000	24.503283	4.266063	2.651377	30.786372	0.186355	84.480833	19.953799	84.928534	-13.148095	-4.363412	25.935107	-3.042379	63.688666	31.809884	51.830662	-8.945879	8.517411
0.250000	3.180574	-4.708906	97.589762	0.158918	0.874448	0.531963	1.518193	-3.817387	-25.049226	15.477852	0.270139	38.047979	17.587708	0.000000	-1.975381	1.030780	12.503094	1.290751	0.022528	27.515160	-2.001708	0.000000	0.190653	-0.105642	-2.094989	0.354062	-0.140504	-2.225926	0.313224	-0.256858	-2.225926	0.217898	-0.256858	-1.833115	0.177041	-0.215425	-1.702179	0.108939	-0.163640	-1.571242	1.361817	-1.195044	-11.651701	0.000000	0.000000	24.442470	4.451565	3.166500	30.886289	0.228272	84.967242	19.803948	84.783386	-13.560903	-4.677617	26.114343	-3.072647	64.141096	31.877386	49.854478	-9.095832	8.348392
0.272727	3.170017	-4.722961	97.627210	0.158881	0.874438	0.532196	1.537522	-3.847699	-25.197609	15.605001	0.272359	37.938617	17.616932	0.000000	-1.948387	1.046470	12.874573	1.352616	0.023608	27.235628	-2.517854	0.000000	0.191994	-0.100911	-2.108622	0.356552	-0.134211	-2.240411	0.315427	-0.245354	-2.240411	0.219430	-0.245354	-1.845044	0.178286	-0.205777	-1.713256	0.109705	-0.156310	-1.581467	1.371393	-1.141520	-11.727524	0.000000	0.000000	24.378988	4.698527	3.783545	31.017533	0.290903	85.712166	19.636457	84.817184	-14.121808	-5.102417	26.223782	-3.097248	64.276707	31.937131	48.547559	-9.227156	8.331099
0.295455	3.119901	-4.694145	97.534573	0.158886	0.874515	0.532312	1.522610	-3.920907	-25.229042	15.714353	0.274267	37.846675	17.661227	0.000000	-1.995553	1.113180	13.236475	1.388765	0.024239	26.935717	-3.194320	0.000000	0.188876	-0.096477	-2.110253	0.350761	-0.128314	-2.242144	0.310304	-0.234574	-2.242144	0.215866	-0.234574	-1.846471	0.175390	-0.196735	-1.714580	0.107924	-0.149442	-1.582690	1.349120	-1.091364	-11.736593	0.000000	0.000000	24.312603	4.957562	4.490813	31.134874	0.391536	86.708211	19.446594	85.054189	-14.792341	-5.715596	26.208442	-3.105004	64.045824	31.990277	47.860955	-9.378820	8.348933
0.318182	3.047324	-4.632945	97.298085	0.158961	0.874651	0.532250	1.488397	-4.015678	-25.100862	15.811086	0.275956	37.763796	17.710731	0.000000	-2.108442	1.211887	13.391493	1.402366	0.024476	26.684920	-3.771702	0.000000	0.184220	-0.091090	-2.090964	0.342116	-0.121149	-2.221649	0.302656	-0.221475	-2.221649	0.210546	-0.221475	-1.829594	0.171067	-0.185750	-1.698908	0.105264	-0.141098	-1.568223	1.315868	-1.030424	-11.629315	0.000000	0.000000	24.286705	5.214152	5.259040	31.047058	0.483619	87.003834	19.382886	86.018801	-15.214688	-6.270879	25.941661	-3.037668	62.901015	32.054124	48.516594	-9.453458	8.455945
0.340909	2.988381	-4.522989	96.889530	0.159052	0.874825	0.531968	1.415193	-4.095835	-24.761106	15.881234	0.277180	37.685572	17.760038	0.000000	-2.311628	1.317664	13.516614	1.387935	0.024224	26.439503	-4.560166	0.000000	0.177180	-0.079715	-2.037349	0.329041	-0.106021	-2.164683	0.291089	-0.193819	-2.164683	0.202499	-0.193819	-1.782680	0.164529	-0.162555	-1.655346	0.101241	-0.123478	-1.528012	1.265578	-0.901752	-11.331123	0.000000	0.000000	24.319845	5.401259	6.023524	30.671478	0.228186	83.792077	20.140773	88.982854	-15.645069	-6.276583	25.487522	-2.866784	61.255388	32.069048	49.757354	-9.456955	8.425540
0.363636	2.846283	-4.378567	96.319862	0.159357	0.875029	0.531453	1.327573	-4.257197	-24.219741	15.959313	0.278543	37.656696	17.800500	0.000000	-2.589194	1.514406	13.367030	1.349229	0.023548	26.213324	-5.204110	0.000000	0.170383	-0.077836	-1.943906	0.316419	-0.103521	-2.065401	0.279923	-0.189250	-2.065401	0.194731	-0.189250	-1.700918	0.158218	-0.158722	-1.579424	0.097357	-0.120567	-1.457930	1.217032	-0.880492	-10.811424	0.000000	0.000000	24.421655	5.515830	6.662724	30.209736	0.249097	82.821352	20.357119	89.498770	-15.386700	-6.552030	24.687687	-2.877483	56.861673	32.524351	52.927384	-9.626942	8.437003
0.386364	2.689645	-4.203546	95.633935	0.159695	0.875260	0.530729	1.213478	-4.437269	-23.546681	16.018711	0.279579	37.652216	17.846564	0.000000	-2.932493	1.741383	13.301741	1.284179	0.022413	25.926144	-6.143259	0.000000	0.162966	-0.076852	-1.809148	0.302644	-0.102213	-1.922220	0.267737	-0.186858	-1.922220	0.186254	-0.186858	-1.583005	0.151330	-0.156717	-1.469933	0.093119	-0.119044	-1.356861	1.164049	-0.869367	-10.061939	0.000000	0.000000	24.612151	5.474480	7.048972	29.634662	0.378731	83.006079	20.309737	87.996078	-14.462588	-6.887195	23.967212	-2.629387	54.430184	32.389995	54.650232	-9.494077	7.801733
